<svg width="201" height="150" viewBox="0 0 201 150" fill="none" xmlns="http://www.w3.org/2000/svg">
<path d="M2 120C8.17421 109.452 12.8375 100.665 16.5 88.9444C18.274 83.2677 19.7981 78.141 21.2222 72.4444C22.8069 66.1058 24.2147 58.3428 27 52.4444C29.7436 46.6344 27.5434 40.2612 30 34.6111C32.5339 28.7831 31 20.4139 31 14.0556C31 10.7966 32.4272 3.9358 29 2.22222C26.2675 0.855976 20.111 2 17.2222 2C13.4554 2 12 2.80353 12 7.05556C12 12.5185 12 17.9815 12 23.4444C12 28.2276 16.0489 33.1655 19 36.4444C20.7714 38.4126 23.9547 42.8018 24.9444 45.1111C26.0759 47.7512 28.0759 49.103 29.2222 51.7778C31.8918 58.0068 38.7684 63.0754 41.0556 69.5556C41.9145 71.9892 44.9748 75.275 46.7778 77.2222C49.2091 79.848 49.2417 83.1733 50.5 86.3889C53.0255 92.8429 60.7244 111.582 51 116.444C42.3749 120.757 30.4799 119.263 21 119C8.41249 118.65 8 105.684 8 96.5C8 90.6276 13.3013 85.2078 20 88.2222C22.7362 89.4535 23.9902 91.7991 24.7778 94.5556C25.5448 97.2402 28.0845 98.4661 29.0556 101.056C31.3058 107.056 38.0478 107.785 43.1111 110C46.1892 111.347 56.2654 114.975 60 112.778C61.9074 111.656 64.4844 104.57 64.9444 102.5C65.859 98.3845 67.7887 94.6219 68.7778 90.5556C68.9834 89.7102 69 84.3633 69 87.8889C69 91.4867 67.9788 97.0656 69.5556 100.444C72.1636 106.033 76.3519 107 82.0556 107C90.3037 107 97.6217 100.823 101 93.2222C102.372 90.1348 106 84.7555 106 90.7778C106 92.1645 106.209 87.187 104.889 86.0556C103.337 84.7257 100.787 84 98.7778 84C90.8589 84 89 91.0644 89 97.7778C89 102.15 90.904 110.917 96.5556 111.944C105.216 113.519 106.766 106.857 108.556 99.4444C112.974 81.1401 113 63.1953 113 44.4444C113 40.5064 107.376 37.4045 105.611 42.1111C101.914 51.9707 102 62.0637 102 72.4444C102 78.4304 102.521 87.2926 106.556 92C110.026 96.0492 109.405 101.432 115.222 103.222C122.256 105.387 125.098 101.553 129.389 96C132.823 91.5554 134.434 86.122 138.444 82C140.159 80.238 143.009 75.6092 145.5 75.0556C147.353 74.6437 148.281 80.3344 143.222 78.7778C140.124 77.8245 134.511 77.0839 131.222 78.2222C127.214 79.6097 129 89.6045 129 92.9444C129 98.5394 130.288 100 136 100C138.754 100 142.551 100.824 144.444 98.3889C147.06 95.0265 146 87.0801 146 82.9444C146 77.682 146 74.0095 146 82C146 90.1111 146 98.2222 146 106.333C146 119.446 147 132.653 147 145.556C147 149.637 139.821 148.105 136.778 148C133.796 147.897 130.628 146.707 127.944 145.5C122.203 142.916 117.333 142 111 142C105.825 142 101.111 140.745 96 140.222C89.5277 139.56 83.0267 140.33 76.5556 139.5C67.643 138.357 58.423 139 49.4444 139C43.3025 139 37.2371 140 31.2222 140C26.8935 140 39.1668 140.064 40.7778 139.778C64.3094 135.594 88.1672 134.133 111.611 129.444C123.343 127.098 134.469 126.439 146 123C153.096 120.884 162.309 120.834 168.778 117C174.046 113.878 181.25 113.356 186.778 110C190.715 107.61 195.169 107.065 199 104" stroke="black" stroke-width="3" stroke-linecap="round"/>
</svg>

<svg width="300" height="225" viewBox="0 0 300 225" fill="none" xmlns="http://www.w3.org/2000/svg">
<path d="M2 165C36.3076 137.95 60.9535 101.015 77.5556 60.7778C82.637 48.4623 86.5278 35.6851 90.5556 23C92.4139 17.1473 94.7546 11.1045 95 4.88889C95.3848 -4.85885 84.5464 16.013 83.9444 17.3889C76.4746 34.4628 70.5875 54.3196 71.9444 73.1667C73.1223 89.5265 83.4919 101.861 89.6667 116.333C92.2479 122.383 94.6848 136.559 90.6111 142.5C82.3885 154.491 59.4843 156.132 46.7778 154.333C26.7642 151.5 17.6384 134.215 12.4444 116.556C11.0809 111.92 7.52 96.4877 18 101.444C44.248 113.859 43.359 152.669 72.6667 160.222C94.9987 165.978 115 154.482 115 130.833C115 125.648 114.844 141.208 115.056 146.389C115.488 156.972 120.845 157 130 157C142.15 157 154.301 157.66 165.778 153C172.992 150.071 183.882 143.321 188.111 136.556C189.204 134.806 193.208 125.0000000064 189.333 124.222C178.645 121.899 163.754 131.35 157.5 139.167C155.835 141.248 147.535 158.356 154.222 158.833C158.152 159.114 161.717 156.459 164.722 154.333C173.686 147.993 182.377 141.015 190.278 133.389C206.512 117.719 217.299 99.7433 217.833 76.7778C218.204 60.8573 208.987 76.2244 207 82.5556C200.745 102.481 195.516 128.37 199.111 149.222C201.888 165.328 214.341 170.773 229.333 171C231.754 171.037 237.321 172.519 236.556 170.222C236.336 169.562 235.253 170.736 234.667 171.111C231.951 172.852 229.958 174.436 227.222 176.333C185.512 205.271 137.786 218.414 87.5 221.722C60.4555 223.501 33.309 223 6.22222 223C5.07751 223 1.82545 222.987 2.83333 222.444C10.1506 218.504 23.9862 217.644 31.3889 216.056C96.049 202.185 160.836 189.379 225.667 176.333C246.591 172.123 268.097 168.792 288.722 163.167C291.999 162.273 295.54 161.46 298 159" stroke="black" stroke-width="3" stroke-linecap="round"/>
</svg>

<svg width="83" height="47" viewBox="0 0 83 47" fill="none" xmlns="http://www.w3.org/2000/svg">
<path d="M10.3594 44.8047C13.5938 44.8047 15.7734 43.8203 16.8984 41.8516C17.3203 41.1484 17.5312 40.375 17.5312 39.5312C17.5312 37.5625 16.1016 35.875 13.2422 34.4688C12.6328 34.1406 11.625 33.6719 10.2188 33.0625C6.375 31.4688 3.82031 29.9688 2.55469 28.5625C1.19531 27.0156 0.515625 25.2109 0.515625 23.1484C0.515625 19.9141 2.29688 17.6406 5.85938 16.3281C7.5 15.7188 9.28125 15.4141 11.2031 15.4141C14.2969 15.4141 16.9688 16.0703 19.2188 17.3828C19.2188 16.0234 19.5469 15.25 20.2031 15.0625C20.4844 15.0156 20.7891 14.9922 21.1172 14.9922V23.7812H19.2891C19.1953 19.4688 16.8047 17.2891 12.1172 17.2422C8.60156 17.2422 6.42188 18.2734 5.57812 20.3359C5.34375 20.8984 5.22656 21.4844 5.22656 22.0938C5.22656 24.1094 6.67969 25.8203 9.58594 27.2266C10.2422 27.5547 11.2734 28 12.6797 28.5625C16.4766 30.1094 19.0078 31.5859 20.2734 32.9922C21.6328 34.4922 22.3125 36.2734 22.3125 38.3359C22.3125 42.1328 20.2969 44.6641 16.2656 45.9297C14.7188 46.4453 13.0312 46.7031 11.2031 46.7031C7.82812 46.6562 4.89844 45.8125 2.41406 44.1719C2.41406 45.3906 2.10938 46.0938 1.5 46.2812C1.21875 46.3281 0.890625 46.3516 0.515625 46.3516V35.6641H2.48438C2.57812 41.7109 5.20312 44.7578 10.3594 44.8047ZM41.6484 44.2422H38.1328V16.1172H27.2344V17.875H32.8594V40.0234C32.8594 42.1797 32.1328 43.4922 30.6797 43.9609C29.9766 44.1484 28.8281 44.2422 27.2344 44.2422V46H43.4062C43.4062 44.9688 43.0547 44.4062 42.3516 44.3125C42.1172 44.2656 41.8828 44.2422 41.6484 44.2422ZM38.9766 5.85156C38.9766 4.21094 38.25 3.03906 36.7969 2.33594C36.2344 2.10156 35.6953 1.98438 35.1797 1.98438C33.5391 1.98438 32.3672 2.73437 31.6641 4.23438C31.4297 4.75 31.3125 5.28906 31.3125 5.85156C31.3125 7.58594 32.0859 8.78125 33.6328 9.4375C34.1484 9.625 34.6641 9.71875 35.1797 9.71875C36.8203 9.71875 37.9688 8.96875 38.625 7.46875C38.8594 6.95312 38.9766 6.41406 38.9766 5.85156ZM72.3047 46H82.3594C82.3594 44.9688 82.0078 44.4062 81.3047 44.3125C81.1172 44.2656 80.8828 44.2422 80.6016 44.2422H77.0859L76.9453 0.296875H64.9922V2.05469H71.6719V19.2109C69.375 16.6797 66.2812 15.4141 62.3906 15.4141C57.2344 15.4141 53.3438 17.7109 50.7188 22.3047C49.125 25.1172 48.3281 28.2812 48.3281 31.7969C48.3281 37.6094 50.1562 41.8516 53.8125 44.5234C55.875 45.9766 58.1484 46.7031 60.6328 46.7031C65.7422 46.6094 69.4453 43.8906 71.7422 38.5469L72.3047 46ZM54.3047 30.9531C54.3047 24.3438 56.0859 20.0547 59.6484 18.0859C60.7734 17.4766 62.0156 17.1719 63.375 17.1719C66.7969 17.1719 69.2344 19 70.6875 22.6562C71.4844 24.625 71.8828 26.9453 71.8828 29.6172C71.8828 35.2422 70.4766 39.3203 67.6641 41.8516C66.1641 43.2109 64.4531 43.8906 62.5312 43.8906C58.6875 43.8906 56.1797 41.5469 55.0078 36.8594C54.5391 35.125 54.3047 33.1562 54.3047 30.9531Z"stroke="black" stroke-width="3" stroke-linecap="round"/>
</svg>

<svg width="1023" height="710" viewBox="0 0 1023 710" fill="none" xmlns="http://www.w3.org/2000/svg">
<path d="M1.91266 570.07C18.0967 556.649 24.8612 534.099 32.0728 515.135C36.5797 503.284 46.2655 490.621 54.3338 480.846C63.6222 469.593 71.4054 457.144 80.4546 445.749C88.7414 435.314 98.1237 426.376 106.127 415.589C115.042 403.573 124.477 391.673 134.761 380.672C151.283 362.997 160.115 337.87 175.692 319.543C182.993 310.955 188.077 300.99 194.991 292.256C203.19 281.899 211.708 271.582 218.419 260.211C224.968 249.114 234.716 240.098 240.68 228.435C247.285 215.519 253.319 202.353 260.428 189.657C266.192 179.364 271.34 168.309 278.201 158.779C284.736 149.703 286.48 138.187 292.383 128.978C298.221 119.872 304.509 109.077 307.284 98.6385C310.407 86.8909 318.171 77.208 322.543 65.9651C325.249 59.0069 328.288 50.1031 328.288 42.6269C328.288 35.2954 331.52 29.5126 331.52 21.9816C331.52 17.2541 331.52 12.5266 331.52 7.79911C331.52 1.09916 325.155 2.95195 320.03 2.95195C312.95 2.95195 294.736 -0.435594 290.229 5.82434C284.786 13.3835 279.055 20.4389 276.585 29.7011C275.232 34.7751 271.783 38.9908 270.302 43.4347C268.969 47.4317 270.414 51.7067 268.866 55.7322C265.263 65.0997 262.504 74.9184 258.094 83.738C255.996 87.9338 252.815 93.9708 251.631 98.3692C250.763 101.595 250.734 104.763 250.734 108.064C250.734 112.073 247.762 114.395 247.502 118.027C246.992 125.163 244.271 130.219 244.271 137.954C244.271 145.764 244.271 153.573 244.271 161.382C244.271 171.943 244.814 179.119 248.22 188.85C251.11 197.105 253.825 210.738 260.428 216.586C265.396 220.987 268.059 232.632 273.713 235.257C282.104 239.153 287.535 247.234 294.358 253.299C300.391 258.661 306.633 262.017 308.989 270.264C310.062 274.018 313.991 274.295 315.273 277.714C316.85 281.921 319.014 284.507 322.184 287.678C339.225 304.719 352.949 325.42 363.744 347.011C371.113 361.747 375.916 378.72 382.505 393.956C385.099 399.956 384.482 409.944 386.095 416.576C387.544 422.532 388.07 431.458 388.07 437.581C388.07 452.781 388.07 467.98 388.07 483.18C388.07 491.302 391.497 508.656 385.646 514.507C380.555 519.598 380.409 522.396 372.81 524.112C366.234 525.597 356.589 532.149 351.267 536.14C345.734 540.29 334.744 543.994 327.929 545.475C322.589 546.636 320.855 547.923 316.081 550.861C310.734 554.151 302.033 552.073 296.064 552.387C285.94 552.92 275.634 553.724 265.903 556.246C254.706 559.149 240.804 557.144 229.37 557.144C210.578 557.144 182.296 562.159 165.908 550.591C148.325 538.18 127.528 532.498 111.782 516.751C96.3729 501.342 79.9468 487.168 70.7603 466.754C68.0331 460.693 64.4901 455.342 62.5022 448.981C60.7944 443.516 61.7704 437.5 60.4376 431.836C59.4299 427.553 57.4683 408.056 60.9762 404.548C64.1168 401.408 72.1741 390.725 77.0437 390.725C80.6962 390.725 86.3529 389.823 89.9694 389.019C91.9651 388.576 92.0788 386.304 94.0985 385.967C97.062 385.474 99.8027 386.383 102.446 384.621C109.126 380.168 119.636 386.351 125.426 387.404C136.251 389.372 142.67 397.901 152.175 402.933C175.125 415.083 198.595 426.28 220.394 440.812C231.317 448.094 243.722 456.367 255.581 461.637C272.855 469.315 288.247 482.086 306.027 488.925C312.645 491.47 320.676 499.413 326.313 503.825C332.183 508.419 339.063 510.949 345.343 515.135C356.682 522.695 366.222 526.445 379.632 526.445C388.861 526.445 405.36 529.828 413.921 525.548C424.475 520.271 429.373 497.984 433.31 488.027C439.267 472.96 449.954 459.523 454.225 443.864C457.995 430.039 461.937 415.811 464.368 402.035C465.78 394.035 470.344 386.667 471.728 378.517C472.738 372.57 474.054 366.369 477.024 360.924C479.202 356.931 479.038 347.329 482.5 344.856C482.92 344.556 483.397 360.595 483.397 363.258C483.397 387.843 479.801 415.478 486.27 439.197C489.047 449.38 489.809 458.635 493.989 468.19C495.463 471.558 495.933 478.119 498.747 480.308C502.22 483.009 500.907 488.125 504.761 490.9C513.195 496.972 520.863 500.594 531.151 500.594C542.038 500.594 556.147 504.078 561.311 493.233C563.634 488.355 567.407 483.261 571.005 479.23C575.014 474.741 577.697 461.431 578.725 455.264C581.755 437.086 587.846 419.95 591.292 402.035C594.139 387.226 601.722 375.382 608.616 362.36C613.678 352.798 625.003 348.666 632.403 342.612C634.341 341.027 641.691 339.022 644.251 339.022C652.519 339.022 658.494 339.94 663.371 347.819C666.113 352.248 670.821 355.397 670.821 360.834C670.821 366.691 668.982 359.02 667.949 356.436C664.41 347.59 654.792 338.27 644.251 343.061C635.643 346.974 624.298 341.478 617.502 349.973C614.51 353.713 609.33 352.827 607.449 358.051C605.308 363.999 601.23 369.1 599.909 375.376C597.877 385.024 598.38 397.036 598.114 406.882C597.94 413.287 593.503 418.633 593.266 425.014C593.187 427.157 593.431 429.339 593.266 431.477C593.05 434.285 590.222 435.321 590.035 437.94C589.275 448.576 586.417 470.955 592.369 480.308C597.733 488.737 600.772 502.884 613.014 503.825C617.828 504.196 620.573 507.057 625.94 507.057C630.895 507.057 635.048 507.587 639.314 504.633C646.757 499.48 651.755 499.768 656.19 490.9C660.375 482.529 666.682 475.32 672.437 467.92C688.997 446.628 692.282 419.966 701.43 395.572C722.416 339.609 722.524 278.629 722.524 219.728C722.524 197.018 722.524 174.308 722.524 151.598C722.524 139.211 722.524 126.824 722.524 114.437C722.524 107.985 724.027 99.0253 722.344 92.7142C719.698 82.7902 709.15 77.4077 699.545 80.8656C692.86 83.2722 694.179 91.542 691.825 96.6637C688.622 103.635 683.747 114.19 683.747 121.797C683.747 139.562 680.515 156.349 680.515 174.218C680.515 189.867 680.515 205.515 680.515 221.164C680.515 257.248 680.515 293.333 680.515 329.417C680.515 361.821 680.515 394.226 680.515 426.63C680.515 441.653 678.657 459.42 689.132 471.152C691.358 473.644 691.184 477.925 693.441 480.846C696.267 484.503 699.875 487.639 703.135 490.9C707.859 495.623 711.425 500.594 718.485 500.594C723.552 500.594 729.68 501.914 733.026 497.452C737.264 491.802 742.334 486.946 745.503 480.487C751.429 468.408 755.478 458.207 758.07 444.941C760.276 433.65 760.178 422.583 763.725 411.55C770.071 391.807 776.536 372.248 784.639 353.204C790.321 339.852 803.191 320.889 818.659 319.543C823.014 319.165 842.444 314.59 846.575 318.376C853.662 324.872 851.782 356.354 851.782 346.741C851.782 334.847 855.085 318.412 838.497 318.017C832.788 317.882 829.525 314.786 823.955 314.786C817.642 314.786 811.329 314.786 805.016 314.786C794.299 314.786 783.578 327.033 779.074 335.79C776.058 341.655 774.594 345.534 774.227 351.948C773.847 358.607 769.166 365.574 767.764 372.234C766.203 379.649 762.917 385.747 762.917 393.328C762.917 400.606 763.089 410.764 760.583 417.654C755.294 432.198 759.686 447.035 759.686 461.906C759.686 473.913 771.213 493.106 782.934 497.183C795.269 501.473 807.163 500.594 820.724 500.594C838.712 500.594 843.111 468.82 848.46 455.892C852.955 445.029 851.549 431.982 854.115 420.616C855.198 415.822 855.013 410.953 855.013 406.074C855.013 401.017 857.988 397.209 858.245 392.341C858.977 378.428 858.245 364.275 858.245 350.332C858.245 345.245 858.245 340.159 858.245 335.072C858.245 323.455 856.629 334.148 856.629 340.099C856.629 373.277 850.597 405.525 844.96 437.94C841.862 455.754 843.703 475.251 843.703 493.323C843.703 501.897 848.835 506.602 850.256 514.417C851.373 520.563 851.053 526.747 852.141 532.908C857.403 562.725 853.397 592.917 853.397 623.03C853.397 629.653 853.428 638.122 850.166 644.034C847.253 649.313 849.996 655.283 847.653 660.64C846.417 663.463 846.387 673.591 844.511 675.092C843.831 675.635 838.929 687.395 838.856 688.377C838.052 699.225 815.127 707.406 805.734 707.406C790.921 707.406 774.241 709.487 759.865 705.79C739.769 700.623 719.911 694.409 699.724 689.633C687.164 686.662 672.755 683.096 661.127 677.605C647.292 671.072 627.516 671.372 612.475 669.257C596.714 667.041 580.694 661.919 565.44 657.319C535.158 648.186 505.699 640.717 474.062 637.122C461.442 635.688 448.984 632.502 436.631 630.031C428.079 628.321 417.948 630.417 409.613 627.518C400.435 624.325 391.114 625.362 381.607 623.748C370.515 621.864 371.928 618.385 382.505 616.926C391.253 615.719 397.585 612.079 406.651 612.079C420.624 612.079 434.013 607.941 447.852 607.231C457.568 606.733 467.578 602.924 477.653 602.384C488.886 601.783 500.418 598.812 511.672 597.627C531.606 595.529 550.566 590.595 570.646 589.458C582.466 588.789 594.921 585.615 606.91 584.252C628.804 581.764 650.91 579.247 672.885 578.059C682.098 577.561 690.402 574.407 699.276 572.404C714.056 569.066 727.674 566.503 742.631 564.864C756.018 563.397 768.124 558.893 781.049 555.887C789.273 553.975 796.686 549.101 805.016 547.54C817.353 545.226 829.733 544.107 842.087 541.705C856.456 538.911 869.301 534.015 883.378 530.395C915.1 522.238 946.565 515.887 977.808 506.698C986.442 504.158 994.753 501.351 1003.66 498.17C1010.61 495.687 1013.64 487.668 1021.43 487.668" stroke="black" stroke-width="3" stroke-linecap="round"/>
</svg>



