<svg id="eQgi1Dn49FX1" xmlns="http://www.w3.org/2000/svg" xmlns:xlink="http://www.w3.org/1999/xlink" viewBox="0 0 640 480" shape-rendering="geometricPrecision" text-rendering="geometricPrecision"><path id="eQgi1Dn49FX2" d="" fill="none" stroke="rgb(63,87,135)" stroke-width="1.28"/><path id="eQgi1Dn49FX3" d="M179.30285,261.83794C190.94286,251.65293,236.64659,182.31868,210.81032,170.57492C208.48474,169.51784,199.51856,171.00204,197.77275,172.74785C180.03533,190.48527,244.74933,234.93133,205.378,243.36804C197.2712,245.10521,178.21639,240.5037,178.21639,229.244C178.21639,224.88091,197.70401,241.63448,204.29154,243.36804C212.97347,245.65276,226.83202,249.62618,230.36669,239.02218C231.20043,236.52095,229.90309,231.41693,232.53962,231.41693C235.10044,231.41693,232.15755,236.92427,233.62608,239.02218C241.20033,249.84253,273.24951,248.41975,275.99819,234.67632C282.44486,202.443,244.65033,232.19957,249.92304,240.10864C263.35687,260.25939,283.22548,209.3002,275.99819,197.73653C268.42299,185.61621,265.21832,225.86861,265.13354,228.15753C264.33405,249.74384,269.4794,269.85718,269.4794,291.17247C269.4794,293.3454,271.25953,296.44516,269.4794,297.69126C259.95837,304.35598,222.42995,287.55046,231.45314,279.22136C243.03883,268.52687,271.98444,262.35696,286.86283,256.40561" fill="none" stroke="rgb(63,87,135)" stroke-width="3"/></svg>