<?xml version="1.0" standalone="no"?>
<!DOCTYPE svg PUBLIC "-//W3C//DTD SVG 20010904//EN"
 "http://www.w3.org/TR/2001/REC-SVG-20010904/DTD/svg10.dtd">
<svg version="1.0" xmlns="http://www.w3.org/2000/svg"
 width="2560.000000pt" height="1600.000000pt" viewBox="0 0 2560.000000 1600.000000"
 preserveAspectRatio="xMidYMid meet">

<g transform="translate(0.000000,1600.000000) scale(0.100000,-0.100000)"
fill="#000000" stroke="none">
<path d="M9935 9925 c-115 -71 -226 -156 -311 -240 -41 -41 -69 -88 -147 -245
-90 -183 -192 -442 -223 -570 -21 -84 -28 -244 -15 -349 13 -107 52 -215 111
-311 l39 -64 -26 -46 c-176 -307 -365 -658 -476 -886 -76 -154 -137 -284 -137
-287 0 -4 -55 -123 -123 -265 -68 -141 -129 -270 -136 -286 -6 -16 -15 -25
-20 -20 -4 5 -31 39 -60 76 -70 90 -152 163 -249 221 -119 72 -194 82 -283 36
-112 -56 -233 -289 -274 -528 -22 -122 -19 -324 6 -472 36 -215 108 -391 229
-561 l58 -81 -28 -66 c-65 -152 -170 -504 -170 -567 0 -28 36 -42 56 -22 8 8
26 57 40 109 48 182 147 469 161 469 3 0 28 -21 57 -47 100 -90 229 -164 422
-239 182 -71 258 -85 457 -85 95 0 188 2 207 5 19 3 107 12 195 21 274 29 407
71 739 237 221 110 311 172 437 299 75 75 118 110 145 119 159 53 347 183 443
306 49 64 305 565 340 665 18 53 19 53 26 24 38 -158 74 -239 168 -379 170
-253 312 -321 428 -205 46 46 132 175 178 267 l32 63 35 -69 c42 -85 101 -142
180 -172 48 -20 79 -24 169 -24 101 -1 115 1 166 27 81 39 140 95 222 211 141
198 260 429 352 681 l18 49 22 -79 c27 -97 67 -198 131 -329 62 -126 91 -148
191 -148 114 1 176 32 381 195 64 51 155 120 201 153 74 52 133 110 275 269
l35 40 1 -40 c0 -22 -9 -94 -19 -160 -30 -185 -33 -244 -20 -335 6 -47 12 -96
13 -109 1 -20 -20 -36 -139 -110 -286 -177 -819 -544 -1175 -812 -179 -134
-526 -373 -675 -465 -498 -309 -1237 -794 -1417 -931 -111 -85 -140 -128 -114
-168 9 -14 28 -28 42 -31 46 -12 593 111 939 211 239 69 452 120 770 185 655
134 1111 293 1384 483 160 112 356 348 460 554 91 182 131 327 139 498 5 139
-7 244 -47 409 l-28 116 176 107 c97 59 239 145 316 192 77 47 345 188 595
314 493 249 550 281 550 308 0 23 -10 29 -67 36 -42 5 -55 1 -103 -27 -51 -30
-143 -78 -710 -367 -107 -55 -296 -162 -420 -238 -310 -191 -359 -219 -368
-211 -15 16 -14 290 1 376 17 89 23 147 32 292 5 75 10 93 39 143 75 123 134
492 92 572 -22 44 -73 60 -119 38 -30 -14 -40 -14 -106 0 -159 33 -228 12
-357 -108 -140 -130 -235 -285 -286 -462 -17 -61 -22 -106 -23 -191 0 -104 2
-113 27 -152 43 -64 103 -94 206 -101 l86 -6 -85 -62 c-46 -33 -136 -102 -199
-152 -63 -51 -142 -105 -174 -121 -69 -35 -135 -40 -162 -12 -25 24 -120 230
-154 331 -16 47 -39 134 -51 192 l-22 107 33 158 c29 140 33 183 38 365 4 162
1 232 -13 330 -36 258 -115 575 -165 657 -21 34 -55 48 -94 38 -66 -16 -108
-181 -110 -426 0 -185 8 -245 78 -535 24 -99 63 -269 86 -378 l42 -197 -28
-83 c-15 -45 -28 -84 -30 -86 -2 -3 -14 5 -27 16 -77 71 -187 112 -317 120
-85 5 -103 3 -173 -21 -150 -51 -317 -147 -403 -233 -52 -52 -105 -141 -123
-208 -6 -22 -16 -94 -22 -160 -11 -118 -12 -122 -66 -225 -109 -205 -195 -320
-238 -320 -29 0 -103 49 -145 96 -49 54 -147 205 -174 267 -13 29 -34 90 -47
137 -21 76 -24 104 -23 265 0 99 6 212 12 252 15 87 5 123 -33 123 -42 0 -61
-30 -69 -106 -8 -77 -73 -355 -106 -455 -37 -110 -295 -619 -342 -675 -58 -68
-176 -165 -249 -204 -33 -18 -62 -30 -64 -28 -2 2 17 39 42 83 154 266 189
540 104 831 -32 114 -190 548 -232 642 -40 90 -122 222 -205 332 -95 126 -399
423 -549 537 -66 50 -146 117 -177 150 -56 56 -138 160 -138 173 0 4 26 49 57
101 31 52 98 180 149 286 51 105 131 259 178 341 84 148 302 578 345 682 12
30 47 96 76 145 66 110 75 150 45 188 -36 46 -142 88 -235 94 l-80 5 -110 -67z
m289 -65 c25 -12 46 -24 46 -27 0 -3 -14 -28 -30 -54 -17 -26 -66 -123 -109
-216 -121 -261 -223 -466 -307 -613 -43 -74 -117 -218 -167 -320 -105 -218
-197 -382 -212 -377 -16 5 -74 127 -90 192 -20 79 -20 300 0 397 26 123 123
374 216 558 49 96 97 184 106 195 35 41 239 199 318 247 75 46 83 49 131 44
28 -3 72 -15 98 -26z m3095 -1732 c68 -264 85 -388 86 -598 0 -162 -11 -348
-20 -338 -5 5 -104 429 -131 562 -35 170 -34 418 3 540 5 17 6 17 14 3 5 -9
27 -85 48 -169z m-3833 -115 c56 -75 131 -147 239 -231 152 -119 221 -179 359
-312 178 -173 313 -351 390 -514 47 -98 221 -576 253 -694 23 -85 26 -116 26
-242 0 -123 -4 -159 -26 -242 -27 -102 -84 -225 -165 -355 -47 -77 -47 -77
-107 -91 -84 -20 -389 -19 -521 2 -160 25 -215 47 -368 145 -77 50 -194 118
-260 152 -185 94 -241 136 -367 271 -128 136 -167 174 -254 243 -99 79 -144
126 -138 144 3 9 65 140 138 291 73 151 153 320 177 375 109 246 565 1095 589
1095 3 0 19 -17 35 -37z m5114 -464 c42 -9 50 -14 44 -27 -4 -10 -9 -120 -11
-247 l-5 -230 -33 -50 c-79 -119 -128 -169 -207 -209 -69 -35 -85 -39 -150
-39 -84 0 -138 20 -159 60 -8 16 -14 53 -13 92 3 187 115 417 275 565 101 94
147 109 259 85z m-1615 -748 c36 -8 32 -9 -33 -10 -191 -3 -394 -127 -573
-349 -57 -71 -61 -74 -55 -42 4 19 21 63 38 98 37 78 115 146 249 216 168 89
260 110 374 87z m111 -134 c27 -14 64 -39 81 -56 l33 -30 -49 -110 c-56 -125
-116 -233 -207 -371 -94 -141 -144 -194 -220 -231 -61 -30 -69 -32 -143 -26
-102 8 -152 29 -201 85 -43 49 -80 146 -80 211 0 70 168 299 299 408 63 52
218 136 271 147 59 11 167 -2 216 -27z m-4973 -105 c43 -26 97 -65 120 -87 45
-42 176 -201 184 -222 4 -11 -31 -107 -163 -438 -24 -60 -106 -235 -182 -388
l-140 -278 -45 68 c-127 192 -193 398 -212 658 -18 248 71 562 195 686 73 73
121 73 243 1z m492 -481 c61 -48 172 -154 248 -234 153 -162 184 -184 389
-294 79 -41 198 -111 266 -155 143 -93 206 -120 320 -142 122 -23 352 -39 472
-33 l105 6 -60 -56 c-87 -80 -168 -130 -386 -241 -311 -158 -412 -188 -751
-223 -287 -30 -485 -24 -618 18 -246 78 -437 182 -553 300 l-48 50 153 309
c92 184 192 405 248 547 52 130 97 237 100 237 3 0 55 -40 115 -89z m6033
-126 c74 -322 50 -532 -93 -820 -92 -183 -255 -381 -413 -500 -168 -126 -463
-252 -842 -360 -176 -50 -246 -66 -555 -131 -266 -55 -531 -122 -805 -202
-259 -77 -686 -182 -737 -182 -14 0 78 65 293 205 126 83 331 218 456 300 125
83 296 192 380 244 445 274 706 448 1022 685 468 349 1249 878 1267 858 4 -4
16 -47 27 -97z"/>
</g>
</svg>
